<?xml version="1.0" standalone="no"?>
<!DOCTYPE svg PUBLIC "-//W3C//DTD SVG 20010904//EN"
 "http://www.w3.org/TR/2001/REC-SVG-20010904/DTD/svg10.dtd">
<svg version="1.0" xmlns="http://www.w3.org/2000/svg"
 width="1000.000000pt" height="1000.000000pt" viewBox="0 0 1000.000000 1000.000000"
 preserveAspectRatio="xMidYMid meet">
<metadata>
Created by potrace 1.11, written by Peter Selinger 2001-2013
</metadata>
<g transform="translate(0.000000,1000.000000) scale(0.100000,-0.100000)"
fill="#000000" stroke="none">
<path d="M2847 9654 c-1 -1 -45 -5 -97 -8 -52 -4 -106 -8 -120 -11 -14 -2 -45
-7 -70 -10 -55 -6 -85 -12 -175 -31 -38 -8 -81 -17 -95 -20 -90 -17 -330 -97
-464 -155 -244 -106 -542 -289 -704 -432 -183 -162 -287 -268 -405 -417 -253
-317 -443 -702 -544 -1105 -8 -33 -17 -71 -19 -85 -2 -14 -7 -36 -9 -50 -11
-53 -15 -76 -20 -115 -4 -22 -8 -51 -10 -65 -26 -173 -26 -555 0 -735 30 -202
59 -325 116 -496 66 -199 96 -274 168 -417 150 -301 311 -525 545 -757 243
-240 472 -402 771 -546 137 -65 371 -159 398 -159 28 0 36 -21 22 -59 -37 -95
-78 -331 -101 -571 -5 -54 -5 -382 0 -410 3 -14 7 -53 10 -88 9 -94 24 -190
51 -312 21 -96 21 -97 59 -235 2 -5 8 -23 14 -38 7 -16 12 -32 12 -37 0 -5 25
-71 55 -146 257 -639 734 -1168 1346 -1493 203 -107 570 -232 779 -265 19 -3
46 -8 60 -10 231 -43 656 -53 885 -21 17 2 64 9 105 15 116 16 139 20 230 41
297 69 582 196 833 373 151 106 261 200 412 352 102 102 128 130 226 244 265
310 463 695 569 1105 43 168 69 321 86 510 5 57 4 321 -1 378 -5 51 -34 280
-40 312 -2 11 -6 40 -10 65 -4 25 -11 60 -15 79 -10 36 -8 43 13 48 7 1 32 7
57 13 25 7 56 14 69 16 107 21 420 161 632 284 420 244 747 565 1024 1005 10
17 33 57 50 90 18 33 37 69 43 80 96 165 233 576 266 800 6 40 12 73 21 130 3
17 7 64 11 105 8 106 11 133 19 151 3 10 1 20 -4 24 -6 3 -8 12 -4 18 11 17
11 117 0 124 -5 3 -4 9 3 13 7 4 9 13 6 19 -4 6 -9 46 -12 89 -6 116 -36 341
-54 412 -5 19 -11 46 -14 60 -15 79 -73 272 -97 327 -11 24 -19 47 -19 52 0
32 -146 330 -242 491 -137 232 -409 539 -640 723 -84 67 -273 199 -335 234
-285 162 -689 303 -1053 368 -191 35 -543 39 -780 10 -67 -9 -208 -35 -270
-50 -30 -8 -70 -17 -88 -20 -40 -7 -286 -87 -334 -108 -18 -9 -67 -30 -108
-48 -212 -90 -463 -248 -719 -453 l-94 -75 -81 78 c-285 276 -581 468 -946
614 -121 48 -360 122 -432 132 -23 4 -45 8 -48 10 -6 4 -176 33 -230 39 -105
13 -454 28 -463 20z"/>
</g>
</svg>
